# xmcd
#
# Track frame offsets:
#	225
#	14300
#	28750
#	40655
#	53777
#	65678
#	79619
#	91961
#	104519
#	116912
#	130569
#	144023
#	157670
#	171909
#
# Disc length: 2512 seconds
#
# Revision: 0
# Processed by: cddbd v1.5.1PL0 Copyright (c) Steve Scherf et al.
# Submitted via: EasyCDDAExtractor 7.5.0.1
#
DISCID=ab09cd0e
DTITLE=Various Artist - Stars der Volksmusik Vol.3
DYEAR=2000
DGENRE=Volksmusik
TTITLE0=Goldried Quintett - Wenn ein Gockel Hochzeit macht
TTITLE1=Weigheimer Buam - Der Morgenmuffel
TTITLE2=Orig. Trio Alpin - Aussa mit der Geig'n
TTITLE3=Zillertal Buam - A G'witter auf der Alm
TTITLE4=Zangtaler Quintett - Nimm's locker
TTITLE5=Die 4 Holterbuam - A flotte Musi
TTITLE6=Orig. Tiroler Spatzen - Gute Freunde
TTITLE7=Hans Zuber Quintett - Jo do brauchst Nerven
TTITLE8=Salzburg Quintett - Zauber der Musik
TTITLE9=Orig. Oberkrainer Quintett - Mit Musik
TTITLE10=Kathreiner Musikanten - Musikanten aus St. Kathrein
TTITLE11=Lüsner Echo - Vota, i möcht' red'n mit dir
TTITLE12=Wildbach Trio - Was aechter Steirer is
TTITLE13=Die Mayrhofner - Melodie um Mitternacht
EXTD=
EXTT0=
EXTT1=
EXTT2=
EXTT3=
EXTT4=
EXTT5=
EXTT6=
EXTT7=
EXTT8=
EXTT9=
EXTT10=
EXTT11=
EXTT12=
EXTT13=
PLAYORDER=
